<?xml version="1.0" standalone="no"?>
<!DOCTYPE svg PUBLIC "-//W3C//DTD SVG 20010904//EN"
 "http://www.w3.org/TR/2001/REC-SVG-20010904/DTD/svg10.dtd">
<svg version="1.0" xmlns="http://www.w3.org/2000/svg"
 width="1000.000000pt" height="1000.000000pt" viewBox="0 0 1000.000000 1000.000000"
 preserveAspectRatio="xMidYMid meet">
<metadata>
Created by potrace 1.11, written by Peter Selinger 2001-2013
</metadata>
<g transform="translate(0.000000,1000.000000) scale(0.100000,-0.100000)"
fill="#000000" stroke="none">
<path d="M4960 9292 c-19 -31 -37 -61 -39 -67 -2 -5 -35 -64 -74 -130 -38 -66
-81 -140 -95 -165 -14 -25 -77 -135 -140 -245 -63 -110 -143 -249 -177 -310
-35 -60 -107 -186 -160 -280 -54 -93 -105 -183 -115 -200 -9 -16 -45 -79 -80
-140 -35 -60 -97 -170 -139 -243 -42 -73 -80 -141 -86 -150 -5 -10 -37 -65
-70 -122 -33 -58 -65 -114 -72 -125 -7 -11 -15 -26 -19 -34 -4 -7 -65 -115
-137 -240 -71 -124 -141 -246 -155 -271 -14 -25 -33 -58 -42 -75 -10 -16 -33
-57 -52 -90 -20 -33 -47 -80 -60 -105 -14 -25 -141 -247 -283 -495 -142 -247
-267 -465 -277 -484 -11 -19 -64 -111 -118 -206 -54 -95 -107 -187 -118 -206
-11 -19 -52 -90 -92 -159 -40 -69 -83 -143 -95 -165 -13 -22 -149 -260 -304
-529 -155 -269 -281 -491 -281 -494 0 -3 -6 -13 -14 -21 -7 -9 -26 -38 -41
-66 -15 -27 -106 -187 -203 -355 -96 -168 -183 -318 -192 -335 -37 -66 -294
-512 -311 -540 -10 -16 -26 -46 -37 -65 -11 -19 -113 -197 -227 -395 -114
-198 -279 -486 -368 -640 -88 -154 -166 -283 -171 -287 -7 -5 -7 -8 -1 -9 94
-11 9687 -11 9767 0 4 1 -22 52 -59 113 -36 62 -85 147 -108 188 -60 107 -560
974 -600 1040 -18 30 -42 71 -53 91 -11 20 -114 198 -228 395 -114 198 -219
379 -233 404 -14 25 -64 112 -111 193 -47 81 -101 175 -121 209 -19 35 -138
240 -263 457 -125 217 -237 410 -248 430 -11 20 -28 50 -38 66 -18 28 -38 63
-72 125 -7 14 -21 36 -29 50 -9 14 -105 180 -214 370 -109 190 -221 386 -250
435 -44 75 -218 377 -314 546 -55 97 -343 595 -351 609 -8 12 -131 227 -266
465 -36 63 -153 265 -178 308 -31 53 -253 440 -276 483 -12 21 -46 80 -75 129
-50 87 -264 457 -310 540 -13 22 -116 202 -231 400 -114 198 -219 381 -234
407 l-26 47 -34 -57z m125 -5680 c-3 -3 -11 0 -18 7 -9 10 -8 11 6 5 10 -3 15
-9 12 -12z m2760 -1590 c-3 -3 -11 0 -18 7 -9 10 -8 11 6 5 10 -3 15 -9 12
-12z"/>
</g>
</svg>
