<svg aria-hidden="true" style="position: absolute; width: 0; height: 0; overflow: hidden;" version="1.1" xmlns="http://www.w3.org/2000/svg" xmlns:xlink="http://www.w3.org/1999/xlink">
<defs>

  <symbol id="icon-block-about_shape" viewBox="0 0 54 32">
    <path fill="#1a2c8e" style="fill: var(--color1, #1a2c8e)" d="M49.584 4.571l-45.012 22.722 45.129 0.015z"></path>
  </symbol>

  <symbol id="icon-briefcase" viewBox="0 0 32 32">
    <path d="M29 8h-7v-4.5c0-0.829-0.671-1.5-1.5-1.5h-9c-0.829 0-1.5 0.671-1.5 1.5v4.5h-7c-1.657 0-3 1.343-3 3v16c0 1.657 1.343 3 3 3h26c1.657 0 3-1.343 3-3v-16c0-1.657-1.343-3-3-3zM12 4h8v4h-8v-4zM30 27c0 0.551-0.449 1-1 1h-26c-0.551 0-1-0.449-1-1v-9h10v2.5c0 0.828 0.672 1.5 1.5 1.5h5c0.828 0 1.5-0.672 1.5-1.5v-2.5h10v9zM14 20v-2h4v2h-4zM30 16h-28v-5c0-0.551 0.449-1 1-1h26c0.551 0 1 0.449 1 1v5z"></path>
  </symbol>

  <symbol id="icon-clock" viewBox="0 0 32 32">
    <path d="M16 0.5c-8.563 0-15.5 6.938-15.5 15.5s6.938 15.5 15.5 15.5 15.5-6.938 15.5-15.5-6.938-15.5-15.5-15.5zM29.5 16c0 7.419-6.006 13.5-13.5 13.5-7.419 0-13.5-6.006-13.5-13.5 0-7.419 6.006-13.5 13.5-13.5 7.419 0 13.5 6.006 13.5 13.5zM20.194 21.519l-5.075-3.688c-0.194-0.144-0.306-0.369-0.306-0.606v-9.975c0-0.412 0.338-0.75 0.75-0.75h0.875c0.413 0 0.75 0.338 0.75 0.75v9.144l4.406 3.206c0.337 0.244 0.406 0.712 0.163 1.050l-0.512 0.706c-0.244 0.331-0.712 0.406-1.050 0.163z"></path>
  </symbol>

  <symbol id="icon-graduation" viewBox="0 0 40 32">
    <path d="M38.26 9.624l-16.563-5.355c-1.113-0.359-2.281-0.359-3.394 0l-16.563 5.355c-1.057 0.342-1.741 1.274-1.741 2.376s0.684 2.034 1.74 2.376l1.857 0.6c-0.206 0.386-0.359 0.802-0.458 1.237-0.668 0.324-1.139 0.994-1.139 1.787 0 0.796 0.473 1.47 1.146 1.792l-1.128 6.991c-0.101 0.624 0.244 1.217 0.709 1.217h2.547c0.464 0 0.81-0.593 0.709-1.217l-1.127-6.991c0.673-0.322 1.146-0.996 1.146-1.792 0-0.663-0.343-1.221-0.839-1.586 0.093-0.291 0.237-0.554 0.411-0.801l3.342 1.081-0.913 7.306c0 2.209 5.372 4 12 4s12-1.791 12-4l-0.913-7.306 7.173-2.319c1.056-0.341 1.74-1.274 1.74-2.375s-0.684-2.034-1.74-2.376zM29.968 23.866c-0.672 0.708-4.090 2.134-9.968 2.134s-9.295-1.426-9.967-2.134l0.818-6.546 7.453 2.409c0.163 0.052 1.608 0.577 3.394 0l7.453-2.409 0.817 6.546zM37.642 12.474l-16.563 5.355c-0.707 0.229-1.453 0.229-2.16 0l-10.979-3.55 12.243-2.296c0.543-0.101 0.901-0.624 0.799-1.167s-0.635-0.899-1.166-0.798l-12.736 2.388c-0.775 0.145-1.469 0.478-2.067 0.927l-2.656-0.859c-0.491-0.159-0.466-0.796 0-0.947l16.563-5.355c0.944-0.305 1.74-0.136 2.16 0l16.563 5.355c0.462 0.149 0.494 0.787 0.001 0.947z"></path>
  </symbol>

  <symbol id="icon-marker" viewBox="0 0 24 32">
    <path d="M12 6c-3.308 0-6 2.692-6 6s2.692 6 6 6 6-2.692 6-6-2.692-6-6-6zM12 16c-2.206 0-4-1.794-4-4s1.794-4 4-4 4 1.794 4 4-1.794 4-4 4zM12 0c-6.627 0-12 5.373-12 12 0 4.838 1.686 6.189 10.767 19.354 0.596 0.861 1.871 0.861 2.467 0 9.081-13.165 10.767-14.516 10.767-19.354 0-6.627-5.373-12-12-12zM12 29.621c-8.706-12.59-10-13.59-10-17.621 0-2.671 1.040-5.182 2.929-7.071s4.4-2.929 7.071-2.929 5.182 1.040 7.071 2.929 2.929 4.4 2.929 7.071c0 4.031-1.293 5.029-10 17.621z"></path>
  </symbol>

  <symbol id="icon-bloc" viewBox="0 0 28 32">
    <path d="M13.842 0l-13.842 7.98v15.959l13.842 7.98 13.842-7.98v-15.959l-13.842-7.98zM24.835 8.55l-10.992 6.351-10.992-6.351 10.992-6.351 10.992 6.351zM1.873 10.178l10.992 6.351v12.702l-10.992-6.351v-12.702zM14.819 29.232v-12.702l10.992-6.351v12.702l-10.992 6.351z"></path>
  </symbol>

  <symbol id="icon-triangle" viewBox="0 0 29 32">
    <path d="M14.080 0l14.72 32h-28.8l14.080-32z"></path>
  </symbol>

  <symbol id="icon-illu-zoom-sur" viewBox="0 0 32 32">
    <path opacity="0.8" d="M0.17 8.663l23.363-8.59 8.59 23.363-23.363 8.59-8.59-23.363z"></path>
    <path d="M1.898 5.714l24.583-3.913 3.913 24.583-24.583 3.913-3.913-24.583z"></path>
    <path opacity="0.65" d="M3.7 3.603h24.891v24.891h-24.891v-24.891z"></path>
    <path fill="#fcfcfc" style="fill: var(--color2, #fcfcfc)" d="M21.445 17.566c0 0.77-0.62 1.405-1.383 1.405-0.142 0-0.232-0.097-0.232-0.232 0-0.142 0.090-0.232 0.232-0.232 0.508 0 0.919-0.419 0.919-0.934 0-0.142 0.090-0.232 0.232-0.232 0.142-0.007 0.232 0.082 0.232 0.224zM20.294 16.4c0-0.142-0.090-0.232-0.232-0.232-0.762 0-1.383 0.635-1.383 1.405 0 0.142 0.090 0.232 0.232 0.232s0.232-0.097 0.232-0.232c0-0.516 0.419-0.934 0.919-0.934 0.142-0.007 0.232-0.105 0.232-0.239zM23.060 10.076v10.3c0 0.142-0.090 0.232-0.232 0.232h-1.592v1.405c0 0.097-0.045 0.187-0.142 0.209-0.045 0.022-0.090 0.022-0.112 0.022-0.067 0-0.112-0.022-0.164-0.067l-0.762-0.77-0.762 0.77c-0.067 0.067-0.164 0.097-0.254 0.045-0.090-0.022-0.142-0.12-0.142-0.209v-1.405h-9.433c-0.142 0-0.232-0.097-0.232-0.232v-10.3c0-0.142 0.090-0.232 0.232-0.232h13.365c0.142 0 0.232 0.090 0.232 0.232zM21.909 17.566c0-0.284-0.067-0.553-0.179-0.8-0.015-0.015-0.022-0.030-0.030-0.045-0.269-0.531-0.755-0.897-1.308-1.002-0.007 0-0.015 0-0.015 0-0.015 0-0.030-0.007-0.045-0.007-0.022 0-0.037-0.007-0.060-0.007-0.015 0-0.022 0-0.037 0-0.022 0-0.037 0-0.060-0.007-0.007 0-0.015 0-0.022 0-0.030 0-0.052 0-0.082 0-1.017 0-1.846 0.845-1.846 1.876 0 0.030 0 0.060 0 0.082 0 0.007 0 0.015 0 0.022 0 0.022 0 0.045 0.007 0.067 0 0.007 0 0.015 0 0.030 0 0.022 0.007 0.045 0.007 0.067 0 0.015 0.007 0.030 0.007 0.045 0 0.007 0 0.022 0.007 0.030 0.075 0.411 0.292 0.785 0.598 1.061l0.007 0.007c0.015 0.015 0.030 0.022 0.037 0.037 0.321 0.262 0.725 0.426 1.166 0.426 1.017-0.007 1.846-0.852 1.846-1.884zM21.677 15.899v-3.737c-0.463-0.097-0.807-0.441-0.897-0.912h-9.269c-0.090 0.471-0.441 0.822-0.897 0.912v6.137c0.463 0.097 0.807 0.441 0.897 0.912h6.907c-0.381-0.396-0.628-0.934-0.658-1.517 0-0.037 0-0.082 0-0.12 0-1.286 1.039-2.34 2.302-2.34 0.037 0 0.075 0 0.12 0 0.576 0.022 1.106 0.277 1.495 0.665v0zM20.758 20.377v-0.561c-0.441 0.142-0.942 0.142-1.383 0v1.637l0.531-0.538c0.045-0.045 0.090-0.067 0.164-0.067 0.067 0 0.112 0.022 0.164 0.067l0.531 0.538v-1.076h-0.007zM22.597 20.145v-9.837h-12.902v9.829h9.217v-0.471h-7.609c-0.135 0-0.232-0.097-0.232-0.232 0-0.396-0.299-0.703-0.695-0.703-0.142 0-0.232-0.097-0.232-0.232v-6.555c0-0.142 0.090-0.232 0.232-0.232 0.389 0 0.695-0.306 0.695-0.703 0-0.142 0.090-0.232 0.232-0.232h9.68c0.142 0 0.232 0.097 0.232 0.232 0 0.396 0.299 0.703 0.695 0.703 0.142 0 0.232 0.097 0.232 0.232v4.605c0.149 0.306 0.232 0.65 0.232 1.017 0 0.852-0.456 1.6-1.129 2.011v0.561h1.353v0.007zM14.763 12.648h2.766c0.142 0 0.232-0.097 0.232-0.232 0-0.142-0.090-0.232-0.232-0.232h-2.766c-0.135 0-0.232 0.097-0.232 0.232 0 0.142 0.090 0.232 0.232 0.232zM19.831 13.35h-7.378c-0.142 0-0.232 0.097-0.232 0.232s0.090 0.232 0.232 0.232h7.378c0.135 0 0.232-0.097 0.232-0.232s-0.090-0.232-0.232-0.232zM19.831 14.524h-7.378c-0.142 0-0.232 0.097-0.232 0.232s0.090 0.232 0.232 0.232h7.378c0.135 0 0.232-0.097 0.232-0.232s-0.090-0.232-0.232-0.232zM17.065 15.697h-3.229c-0.142 0-0.232 0.097-0.232 0.232s0.090 0.232 0.232 0.232h3.229c0.142 0 0.232-0.097 0.232-0.232s-0.090-0.232-0.232-0.232zM12.461 16.161h0.463c0.142 0 0.232-0.097 0.232-0.232s-0.090-0.232-0.232-0.232h-0.463c-0.142 0-0.232 0.097-0.232 0.232 0 0.142 0.090 0.232 0.232 0.232zM14.299 16.863h-1.846c-0.135 0-0.232 0.097-0.232 0.232s0.090 0.232 0.232 0.232h1.846c0.135 0 0.232-0.097 0.232-0.232s-0.090-0.232-0.232-0.232zM17.065 16.863h-1.846c-0.135 0-0.232 0.097-0.232 0.232s0.090 0.232 0.232 0.232h1.846c0.135 0 0.232-0.097 0.232-0.232s-0.090-0.232-0.232-0.232z"></path>
    </symbol>

    <symbol id="icon-eval" viewBox="0 0 32 32">
      <path fill="#fff" style="fill: var(--color1, #fff)" d="M31.915 15.93c0 8.798-7.132 15.93-15.93 15.93s-15.93-7.132-15.93-15.93c0-8.798 7.132-15.93 15.93-15.93s15.93 7.132 15.93 15.93z"></path>
      <path fill="#000" style="fill: var(--color2, #000)" d="M24.331 21.512c0 0.818-0.677 1.494-1.494 1.494h-13.702c-0.818 0-1.494-0.677-1.494-1.494v-11.193c0-0.818 0.677-1.494 1.494-1.494h13.702c0.818 0 1.494 0.677 1.494 1.494v11.193zM22.837 8.035h-13.702c-1.269 0-2.312 1.043-2.312 2.284v11.193c0 1.269 1.043 2.284 2.312 2.284h13.702c1.269 0 2.312-1.043 2.312-2.284v-11.193c0-1.269-1.043-2.284-2.312-2.284v0zM9.614 15.591c0.902 0.479 1.917 0.733 2.876 0.733 0.677 0 1.325-0.113 1.945-0.367 1.1-0.423 1.917-1.184 2.819-2.002 1.297-1.184 2.65-2.425 4.906-2.566 0.226-0.028 0.395-0.197 0.367-0.423s-0.197-0.395-0.423-0.367c-2.537 0.169-4.060 1.551-5.413 2.791-0.846 0.761-1.607 1.466-2.566 1.833-1.297 0.508-2.819 0.367-4.173-0.338-0.197-0.113-0.451-0.028-0.564 0.169-0.028 0.169 0.028 0.423 0.226 0.536v0zM22.16 12.715c-0.226 0-0.423 0.169-0.423 0.395v7.33h-2.256v-6.485c0-0.226-0.169-0.395-0.423-0.395-0.226 0-0.423 0.169-0.423 0.395v6.513h-2.256v-3.863c0-0.226-0.197-0.395-0.423-0.395s-0.423 0.169-0.423 0.395v3.863h-2.255v-2.707c0-0.226-0.197-0.395-0.423-0.395s-0.423 0.169-0.423 0.395v2.678h-2.255v-3.101c0-0.226-0.197-0.395-0.423-0.395s-0.423 0.169-0.423 0.395v3.524c0 0.226 0.197 0.395 0.423 0.395h12.349c0.226 0 0.423-0.169 0.423-0.395v-7.753c0.056-0.226-0.141-0.395-0.367-0.395v0z"></path>
    </symbol>

    <symbol id="icon-mise-en-oeuvre" viewBox="0 0 32 32">
      <path fill="#fff" style="fill: var(--color1, #fff)" d="M31.831 16.155c0 8.798-7.132 15.93-15.93 15.93s-15.93-7.132-15.93-15.93c0-8.798 7.132-15.93 15.93-15.93s15.93 7.132 15.93 15.93z"></path>
      <path fill="#000" style="fill: var(--color2, #000)" d="M22.64 22.104h-1.522l0.395-0.395c1.494-1.494 2.312-3.468 2.312-5.582s-0.818-4.088-2.312-5.582c-1.776-1.776-4.314-2.622-6.823-2.199-0.226 0.028-0.338 0.226-0.31 0.423 0.028 0.226 0.226 0.338 0.423 0.31 2.256-0.338 4.539 0.395 6.146 2.002 1.353 1.353 2.086 3.13 2.086 5.047s-0.761 3.693-2.086 5.047l-0.395 0.423v-1.522c0-0.226-0.169-0.395-0.395-0.395s-0.395 0.169-0.395 0.395v2.453c0 0.226 0.169 0.395 0.395 0.395h2.453c0.226 0 0.395-0.169 0.395-0.395s-0.169-0.423-0.367-0.423zM17.001 23.204c-2.255 0.338-4.539-0.395-6.146-2.002-2.763-2.763-2.763-7.302 0-10.093l0.395-0.395v1.522c0 0.226 0.169 0.395 0.395 0.395s0.395-0.169 0.395-0.395v-2.453c0-0.226-0.169-0.395-0.395-0.395h-2.453c-0.226 0-0.395 0.169-0.395 0.395s0.169 0.395 0.395 0.395h1.522l-0.395 0.395c-3.073 3.073-3.073 8.092 0 11.165 1.494 1.494 3.496 2.312 5.611 2.312 0.395 0 0.818-0.028 1.212-0.113 0.226-0.028 0.338-0.226 0.31-0.423-0.056-0.226-0.254-0.338-0.451-0.31zM19.764 17.255c0.338-0.028 0.592-0.31 0.592-0.677v-0.874c0-0.338-0.254-0.62-0.592-0.677l-0.874-0.085c-0.028-0.028-0.028-0.056-0.028-0.085l0.536-0.677c0.226-0.254 0.197-0.648-0.056-0.902l-0.62-0.62c-0.254-0.254-0.62-0.254-0.902-0.056l-0.677 0.536c-0.028-0.028-0.056-0.028-0.085-0.028l-0.085-0.874c-0.028-0.338-0.31-0.592-0.677-0.592h-0.874c-0.338 0-0.62 0.254-0.677 0.592l-0.056 0.902c-0.028 0.028-0.056 0.028-0.085 0.028l-0.677-0.536c-0.254-0.226-0.648-0.197-0.902 0.056l-0.62 0.648c-0.254 0.254-0.254 0.62-0.056 0.902l0.536 0.677c-0.028 0.028-0.028 0.056-0.028 0.085l-0.874 0.085c-0.338 0.028-0.592 0.31-0.592 0.677v0.874c0 0.338 0.254 0.62 0.592 0.677l0.874 0.085c0.028 0.028 0.028 0.056 0.028 0.085l-0.536 0.677c-0.226 0.254-0.197 0.648 0.056 0.902l0.62 0.62c0.254 0.254 0.62 0.254 0.902 0.056l0.677-0.536c0.056-0.028 0.056-0.028 0.085 0l0.085 0.874c0.028 0.338 0.31 0.592 0.677 0.592h0.874c0.338 0 0.62-0.254 0.677-0.592l0.085-0.874c0.028-0.028 0.056-0.028 0.085-0.028l0.677 0.536c0.254 0.226 0.648 0.197 0.902-0.056l0.62-0.62c0.254-0.254 0.254-0.62 0.056-0.902l-0.536-0.677c0.028-0.028 0.028-0.056 0.028-0.085l0.846-0.113zM18.213 17.734l0.648 0.761-0.592 0.62-0.789-0.648c-0.141-0.113-0.31-0.141-0.479-0.056-0.113 0.056-0.197 0.085-0.31 0.113-0.169 0.056-0.282 0.197-0.31 0.367l-0.085 0.987-0.874 0.028-0.085-1.015c-0.028-0.169-0.141-0.31-0.31-0.367-0.113-0.028-0.197-0.085-0.31-0.113-0.056-0.028-0.141-0.056-0.197-0.056-0.113 0-0.197 0.028-0.282 0.113l-0.761 0.648-0.62-0.592 0.648-0.789c0.113-0.141 0.141-0.31 0.056-0.479-0.056-0.113-0.085-0.197-0.113-0.31-0.056-0.169-0.197-0.282-0.367-0.31l-0.987-0.085-0.028-0.874 1.043-0.113c0.169-0.028 0.31-0.141 0.367-0.31 0.028-0.113 0.085-0.197 0.113-0.31 0.085-0.141 0.056-0.338-0.056-0.479l-0.648-0.761 0.592-0.62 0.789 0.648c0.141 0.113 0.31 0.141 0.479 0.056 0.113-0.056 0.197-0.085 0.31-0.113 0.169-0.056 0.282-0.197 0.31-0.367l0.085-0.987 0.874-0.028 0.113 1.043c0.028 0.169 0.141 0.31 0.31 0.367 0.113 0.028 0.197 0.085 0.31 0.113 0.141 0.085 0.338 0.056 0.479-0.056l0.761-0.648 0.62 0.592-0.648 0.818c-0.113 0.141-0.141 0.31-0.056 0.479 0.056 0.113 0.085 0.197 0.113 0.31 0.056 0.169 0.197 0.282 0.367 0.31l0.987 0.113 0.028 0.818-1.043 0.113c-0.169 0.028-0.31 0.141-0.367 0.31-0.028 0.113-0.085 0.197-0.113 0.31-0.085 0.141-0.085 0.31 0.028 0.451zM15.901 14.52c-0.902 0-1.635 0.733-1.635 1.635s0.733 1.635 1.635 1.635c0.902 0 1.635-0.733 1.635-1.635s-0.733-1.635-1.635-1.635zM15.901 17.085c-0.508 0-0.959-0.423-0.959-0.959s0.423-0.959 0.959-0.959c0.508 0 0.959 0.423 0.959 0.959s-0.451 0.959-0.959 0.959z"></path>
    </symbol>

    <symbol id="icon-zoom" viewBox="0 0 32 32">
      <path d="M13.836 16.523c-0.283 0-0.538-0.226-0.538-0.538v-4.216c0-0.283 0.255-0.538 0.538-0.538s0.538 0.226 0.538 0.538v4.216c0 0.283-0.226 0.538-0.538 0.538zM15.986 14.401h-4.301c-0.283 0-0.538-0.226-0.538-0.538 0-0.283 0.255-0.538 0.538-0.538h4.301c0.283 0 0.538 0.226 0.538 0.538s-0.226 0.538-0.538 0.538zM13.836 19.692c-3.254 0-5.913-2.603-5.913-5.828s2.66-5.8 5.913-5.8 5.913 2.603 5.913 5.8-2.631 5.828-5.913 5.828zM13.836 9.111c-2.66 0-4.838 2.122-4.838 4.753s2.179 4.753 4.838 4.753 4.838-2.122 4.838-4.753-2.15-4.753-4.838-4.753zM23.512 23.908c-0.141 0-0.283-0.057-0.368-0.141l-5.376-5.291c-0.198-0.198-0.198-0.538 0-0.764 0.198-0.198 0.566-0.198 0.764 0l5.376 5.291c0.198 0.198 0.198 0.538 0 0.736 0 0 0 0 0 0-0.113 0.113-0.255 0.17-0.396 0.17z"></path>
    </symbol>

    <symbol id="icon-accompagnement" viewBox="0 0 32 32">
      <path d="M30.2 24.16c-0.16-0.56-0.56-1-1.040-1.28s-1.080-0.32-1.6-0.16l-5.56 1.080c-0.4-0.68-1.2-1.16-2.080-1.16h-2.84c-0.080 0-0.92 0.080-2.32-0.44-0.92-0.32-1.48-0.56-1.88-0.72-0.36-0.12-0.6-0.24-0.84-0.32-0.44-0.16-2.4-0.2-3.8-0.2-0.080-0.72-0.68-1.28-1.44-1.28h-5.12v1.36h2.6v7.76h-2.6v1.36h5.040c0.6 0 1.16-0.4 1.36-0.92 1 0.040 1.56 0.32 1.6 0.36l0.040 0.040 4.72 1.72c1.32 0.48 2.28 0.6 2.96 0.6 0.6 0 0.92-0.080 1-0.12h0.040l3.84-1.92 6.52-3.080c1.12-0.36 1.76-1.56 1.4-2.68zM6.8 28.8c0 0.040-0.040 0.080-0.080 0.080h-1.080v-7.76h1.080c0.040 0 0.080 0.040 0.080 0.080v7.6zM28.36 25.56h-0.040l-6.64 3.12-3.76 1.88c-0.2 0.040-1.2 0.2-3.040-0.44l-4.6-1.64c-0.24-0.12-0.96-0.44-2.12-0.52v-5.56c1.48 0 3.040 0.040 3.36 0.12 0.2 0.080 0.44 0.16 0.76 0.28 0.4 0.16 1 0.36 1.92 0.72 1.64 0.6 2.68 0.52 2.96 0.52h2.72c0.56 0 1 0.4 1 0.84s-0.48 0.84-1 0.84h-2.76l-1.68-0.040c-0.24-0.040-1-0.080-1.56 0.44-0.28 0.24-0.6 0.72-0.56 1.52l1.36-0.080c0-0.12 0-0.32 0.080-0.44 0.12-0.12 0.4-0.12 0.52-0.12h0.040l1.8 0.040h2.8c1.2 0 2.2-0.84 2.36-1.92l5.6-1.080h0.080c0.2-0.080 0.4-0.040 0.6 0.080s0.32 0.28 0.4 0.48c0.080 0.4-0.16 0.84-0.6 0.96z"></path>
      <path d="M27.52 19.56c0-2.4-0.96-4.6-2.68-6.28-1.48-1.4-3.32-2.2-5.28-2.36 2.72-0.32 4.84-2.64 4.84-5.44 0-3-2.44-5.48-5.48-5.48s-5.48 2.48-5.48 5.48c0 2.8 2.12 5.12 4.84 5.44-4.52 0.32-8.040 4.12-8.040 8.72v0.88h17.32v-0.96zM14.8 5.48c0-2.28 1.84-4.12 4.12-4.12s4.12 1.84 4.12 4.12-1.84 4.12-4.12 4.12-4.12-1.84-4.12-4.12zM11.64 19.12c0.24-3.68 3.2-6.64 6.88-6.84 2-0.12 3.92 0.6 5.4 2 1.36 1.28 2.16 3 2.24 4.84h-14.52z"></path>
    </symbol>

    <symbol id="icon-regroupement" viewBox="0 0 32 32">
      <path d="M9.84 24.88c0.64-0.6 1.080-1.52 1.080-2.52 0-1.84-1.4-3.36-3.12-3.36s-3.12 1.52-3.12 3.36c0 1 0.4 1.88 1.080 2.52-2.2 0.6-3.76 2.12-3.76 3.92v2.64c0 0.32 0.24 0.56 0.56 0.56h10.44c0.32 0 0.56-0.24 0.56-0.56v-2.64c0-1.8-1.52-3.32-3.72-3.92zM5.8 22.36c0-1.24 0.88-2.24 2-2.24s2 1 2 2.24c0 1.24-0.88 2.24-2 2.24s-2-1-2-2.24zM7.8 25.72c2.56 0 4.64 1.36 4.64 3.080v2.080h-9.32v-2.080c0-1.68 2.080-3.080 4.68-3.080zM26.28 24.88c0.64-0.6 1.080-1.52 1.080-2.52 0-1.84-1.4-3.36-3.12-3.36s-3.12 1.52-3.12 3.36c0 1 0.4 1.88 1.080 2.52-2.16 0.6-3.72 2.12-3.72 3.92v2.64c0 0.32 0.24 0.56 0.56 0.56h10.44c0.32 0 0.56-0.24 0.56-0.56v-2.64c-0.040-1.8-1.6-3.32-3.76-3.92zM22.2 22.36c0-1.24 0.88-2.24 2-2.24s2 1 2 2.24c0 1.24-0.88 2.24-2 2.24-1.080 0-2-1-2-2.24zM24.2 25.72c2.56 0 4.64 1.36 4.64 3.080v2.080h-9.28v-2.080c0-1.68 2.080-3.080 4.64-3.080zM29.48 0h-26.96c-0.32 0-0.56 0.24-0.56 0.56v11.88c0 0.32 0.24 0.56 0.56 0.56h11.92l-1.84 3.24c-0.16 0.28-0.040 0.6 0.2 0.76 0.080 0.040 0.2 0.080 0.28 0.080 0.2 0 0.4-0.12 0.48-0.28l2.16-3.8h0.48l2.2 3.8c0.12 0.2 0.28 0.28 0.48 0.28 0.080 0 0.2-0.040 0.28-0.080 0.28-0.16 0.36-0.52 0.2-0.76l-1.84-3.24h11.92c0.32 0 0.56-0.24 0.56-0.56v-11.88c0.040-0.32-0.2-0.56-0.52-0.56zM28.92 11.88h-25.84v-10.76h25.8v10.76zM5.44 9.24c-0.16-0.28-0.12-0.6 0.16-0.8l2.56-1.72c0.12-0.080 0.28-0.12 0.44-0.080 0.24-0.040 0.44 0.040 0.6 0.24l0.52 0.84 4.16-4.080c0.24-0.24 0.6-0.2 0.8 0 0.24 0.24 0.2 0.6 0 0.8l-4.72 4.68c0 0-0.040 0.040-0.040 0.040s-0.040 0.040-0.040 0.040c0 0-0.040 0-0.040 0.040 0 0-0.040 0-0.040 0.040-0.080 0.040-0.12 0.040-0.2 0.040v0 0c-0.080 0-0.16-0.040-0.24-0.080-0.040 0-0.040-0.040-0.080-0.040-0.040-0.040-0.080-0.040-0.080-0.080-0.040-0.040-0.040-0.040-0.040-0.080 0 0-0.040 0-0.040-0.040l-0.64-1.080-2.24 1.48c-0.080 0.080-0.2 0.080-0.32 0.080-0.2 0.040-0.4-0.080-0.48-0.24zM18.32 3.72c0-0.32 0.24-0.56 0.56-0.56h7.56c0.32 0 0.56 0.24 0.56 0.56s-0.24 0.56-0.56 0.56h-7.52c-0.32 0-0.6-0.24-0.6-0.56zM18.32 6.48c0-0.32 0.24-0.56 0.56-0.56h6.040c0.32 0 0.56 0.24 0.56 0.56s-0.24 0.56-0.56 0.56h-6c-0.32 0.040-0.6-0.24-0.6-0.56zM18.32 9.28c0-0.32 0.24-0.56 0.56-0.56h7.56c0.32 0 0.56 0.24 0.56 0.56s-0.24 0.56-0.56 0.56h-7.52c-0.32 0-0.6-0.24-0.6-0.56z"></path>
    </symbol>

    <symbol id="icon-briefcase" viewBox="0 0 35 32">
      <path d="M32.103 4.645h-7.845l-0.619-2.374c-0.31-1.342-1.548-2.271-2.89-2.271h-6.297c-1.342 0-2.581 0.929-2.89 2.271l-0.619 2.374h-7.948c-1.652 0-2.994 1.342-2.994 2.994v20.955c0 1.652 1.342 2.994 2.994 2.994h29.11c1.652 0 2.994-1.342 2.994-2.994v-20.955c0-1.652-1.342-2.994-2.994-2.994zM14.968 3.716h5.265l0.206 0.929h-5.677l0.206-0.929zM12.284 4.645l0.516-2.065c0.206-0.723 0.826-1.239 1.548-1.239h6.297c0.723 0 1.445 0.516 1.548 1.239l0.516 2.065h-0.929l-0.413-1.755c-0.103-0.31-0.31-0.516-0.723-0.516h-6.297c-0.31 0-0.619 0.206-0.723 0.516l-0.413 1.755h-0.929zM18.581 21.161v0.929h-2.065v-0.929h2.065zM18.581 17.652v2.065h-2.065v-2.065h2.065zM29.729 17.135c-0.31 0.929-1.135 1.548-2.065 1.548h-7.639v-1.032c0-0.723-0.619-1.239-1.239-1.239h-2.374c-0.723 0-1.239 0.619-1.239 1.239v1.032h-7.742c-0.929 0-1.755-0.619-2.065-1.548l-3.51-10.632c0.31-0.31 0.723-0.516 1.135-0.516h29.11c0.413 0 0.929 0.206 1.239 0.516l-3.613 10.632zM15.071 20.026v2.168c0 0.723 0.619 1.239 1.239 1.239h2.374c0.723 0 1.239-0.619 1.239-1.239v-2.168h7.639c1.548 0 2.89-1.032 3.406-2.477l2.684-7.948v18.994c0 0.929-0.723 1.652-1.652 1.652h-29.006c-0.929 0-1.652-0.723-1.652-1.652v-18.994l2.684 7.948c0.516 1.445 1.858 2.477 3.406 2.477h7.639z"></path>
    </symbol>

    <symbol id="icon-files" viewBox="0 0 27 32">
      <path d="M21.884 24.877v-23.019c0-1.032-0.826-1.858-1.858-1.858h-18.168c-1.032 0-1.858 0.826-1.858 1.858v23.019c0 1.032 0.826 1.858 1.858 1.858h18.168c1.032-0.052 1.858-0.877 1.858-1.858zM1.239 24.877v-23.019c0-0.361 0.258-0.619 0.619-0.619h18.168c0.361 0 0.619 0.258 0.619 0.619v23.019c0 0.361-0.258 0.619-0.619 0.619h-18.168c-0.361-0.052-0.619-0.31-0.619-0.619zM22.503 29.161h-19.613c-0.361 0-0.619-0.258-0.619-0.619s0.258-0.619 0.619-0.619h0.206c0 0 0 0 0 0s0 0 0 0h19.406c0.361 0 0.619-0.258 0.619-0.619v-24.206c0-0.361 0.258-0.619 0.619-0.619s0.619 0.258 0.619 0.619v24.258c0 0.981-0.826 1.806-1.858 1.806zM26.839 5.574v24.258c0 1.032-0.826 1.858-1.858 1.858h-19.406c-0.361 0-0.619-0.258-0.619-0.619s0.258-0.619 0.619-0.619h19.406c0.361 0 0.619-0.258 0.619-0.619v-24.258c0-0.361 0.258-0.619 0.619-0.619s0.619 0.258 0.619 0.619zM10.632 11.148v-5.935c0-0.361-0.258-0.619-0.619-0.619h-5.935c-0.361 0-0.619 0.258-0.619 0.619v5.935c0 0.361 0.258 0.619 0.619 0.619h5.935c0.361 0 0.619-0.31 0.619-0.619zM9.394 10.529h-4.697v-4.697h4.697v4.697zM8.052 14.555c0.258 0.258 0.258 0.619 0 0.877l-2.065 2.065c-0.103 0.103-0.258 0.206-0.413 0.206s-0.31-0.052-0.413-0.206l-1.187-1.187c-0.258-0.258-0.258-0.619 0-0.877s0.619-0.258 0.877 0l0.774 0.774 1.652-1.652c0.103-0.258 0.516-0.258 0.774 0zM18.787 16c0 0.361-0.258 0.619-0.619 0.619h-7.226c-0.361 0-0.619-0.258-0.619-0.619s0.258-0.619 0.619-0.619h7.226c0.31 0 0.619 0.31 0.619 0.619zM12.852 5.213c0-0.361 0.258-0.619 0.619-0.619h4.335c0.361 0 0.619 0.258 0.619 0.619s-0.258 0.619-0.619 0.619h-4.335c-0.31 0-0.619-0.31-0.619-0.619zM12.852 8.155c0-0.361 0.258-0.619 0.619-0.619h4.335c0.361 0 0.619 0.258 0.619 0.619s-0.258 0.619-0.619 0.619h-4.335c-0.31 0-0.619-0.258-0.619-0.619zM12.852 11.148c0-0.361 0.258-0.619 0.619-0.619h4.335c0.361 0 0.619 0.258 0.619 0.619s-0.258 0.619-0.619 0.619h-4.335c-0.31 0-0.619-0.31-0.619-0.619zM8.052 19.252c0.258 0.258 0.258 0.619 0 0.877l-2.065 2.065c-0.103 0.103-0.258 0.206-0.413 0.206s-0.31-0.052-0.413-0.206l-1.187-1.187c-0.361-0.206-0.361-0.619-0.103-0.877s0.619-0.258 0.877 0l0.774 0.774 1.652-1.652c0.206-0.206 0.619-0.206 0.877 0zM18.787 20.697c0 0.361-0.258 0.619-0.619 0.619h-7.226c-0.361 0-0.619-0.258-0.619-0.619s0.258-0.619 0.619-0.619h7.226c0.31 0 0.619 0.31 0.619 0.619z"></path>
    </symbol>

    <symbol id="icon-continue" viewBox="0 0 32 32">
      <path d="M11.6 7.543v2l3.257-1.657v-2.229l-3.257 1.886zM11.6 21.714l3.257-1.657v-2.8l-3.257 1.657v2.8zM15.943 20l4.286 1.371v-2.914l-4.286-1.371v2.914zM20.229 22.571l-4.286-1.429v5.657h4.286v-4.229zM14.857 21.314l-3.257 1.657v3.829h3.257v-5.486zM11.6 17.657l3.257-1.657v-2.8l-3.257 1.657v2.8zM15.943 15.943l4.286 1.371v-2.914l-4.286-1.371v2.914zM11.6 13.6l3.257-1.657v-2.8l-3.257 1.657v2.8zM15.943 11.886l4.286 1.371v-2.914l-4.286-1.371v2.914zM15.943 7.771l4.286 1.371v-2.057l-4.286-1.6v2.286zM24.743 17.143v9.714h2.857v-8.743l-2.857-0.971zM23.6 26.8v-9.6l-2.114 1.029v8.571h2.114zM8.4 17.2v9.6h2.057v-8.571l-2.057-1.029zM7.257 26.8v-9.657l-2.857 0.914v8.743h2.857zM1.143 24.571v2.229h2.171v-2.229l-1.257-0.343-0.914 0.343zM0 23.886l2-0.857 1.314 0.4v-6.171l4.571-1.486 2.571 1.257v-10.114l4.8-2.857 6.057 2.229v10.743l2.743-1.371 4.571 1.486v6.286l1.314-0.4 2 0.857v4.057c-10.686 0-21.314 0-32 0l0.057-4.057zM30.857 26.8v-2.229l-0.914-0.4-1.257 0.4v2.229h2.171z"></path>
    </symbol>

    <symbol id="icon-vae" viewBox="0 0 21 32">
      <path d="M21.333 6.24c0 0 0 0 0 0 0-0.053 0-0.053 0-0.107 0 0 0 0 0 0s0-0.053 0-0.053c0 0 0 0 0 0s0-0.053-0.053-0.053c0 0 0 0 0 0s-0.053-0.053-0.053-0.053c0 0 0 0 0 0s-0.053-0.053-0.053-0.053l-5.707-5.653c0 0-0.053-0.053-0.053-0.053s0 0 0 0-0.053-0.053-0.053-0.053c0 0 0 0 0 0s-0.053 0-0.053-0.053c0 0 0 0 0 0s-0.053 0-0.053 0c0 0 0 0 0 0s-0.053 0-0.107 0c0 0 0 0 0 0s0 0 0 0h-14.347c-0.373 0-0.64 0.267-0.64 0.64v26.773c0 0.32 0.267 0.64 0.64 0.64h9.547v3.36c0 0.213 0.107 0.427 0.32 0.533s0.427 0.107 0.64 0l2.4-1.493 2.4 1.493c0.107 0.053 0.213 0.107 0.32 0.107s0.213 0 0.32-0.053c0.213-0.107 0.32-0.32 0.32-0.533v-3.36h3.787c0.373 0 0.64-0.267 0.64-0.64l-0.16-21.333c0 0.053 0 0 0 0zM15.627 2.133l3.573 3.52h-3.573v-3.52zM9.867 19.307c-0.053-0.107-0.107-0.32-0.107-0.373 0.053-0.053 0.213-0.16 0.32-0.213 0.213-0.16 0.48-0.32 0.64-0.533 0.213-0.267 0.267-0.533 0.32-0.8 0.053-0.107 0.053-0.32 0.107-0.373 0 0 0.053 0 0.16 0 0.053 0 0.16 0 0.213 0 0.107 0 0.213 0 0.32 0 0.213 0 0.427 0 0.587-0.107 0.267-0.107 0.533-0.267 0.747-0.427 0.107-0.107 0.32-0.267 0.373-0.267s0.267 0.16 0.373 0.267c0.213 0.16 0.427 0.373 0.747 0.427 0.16 0.053 0.373 0.107 0.587 0.107 0.107 0 0.213 0 0.32 0s0.16 0 0.213 0 0.16 0 0.16 0c0.053 0.053 0.107 0.267 0.107 0.373 0.053 0.267 0.16 0.533 0.32 0.8s0.427 0.427 0.64 0.533c0.107 0.053 0.267 0.16 0.32 0.213 0 0.053-0.053 0.267-0.107 0.373-0.107 0.267-0.213 0.533-0.213 0.853s0.107 0.587 0.213 0.853c0.053 0.107 0.107 0.32 0.107 0.373-0.053 0.053-0.213 0.16-0.32 0.213-0.213 0.16-0.48 0.32-0.64 0.533-0.213 0.267-0.267 0.533-0.32 0.8-0.053 0.107-0.053 0.32-0.107 0.373 0 0-0.053 0-0.16 0-0.053 0-0.16 0-0.213 0-0.107 0-0.213 0-0.32 0-0.213 0-0.427 0-0.587 0.107-0.267 0.107-0.533 0.267-0.747 0.427-0.107 0.107-0.32 0.213-0.373 0.267-0.053 0-0.267-0.16-0.373-0.267-0.213-0.16-0.427-0.373-0.747-0.427-0.16-0.053-0.373-0.107-0.587-0.107-0.107 0-0.213 0-0.32 0s-0.16 0-0.213 0-0.16 0-0.16 0c-0.053-0.053-0.107-0.267-0.107-0.373-0.053-0.267-0.16-0.533-0.32-0.8s-0.427-0.427-0.64-0.533c-0.107-0.053-0.267-0.16-0.32-0.213 0-0.053 0.053-0.267 0.107-0.373 0.107-0.267 0.213-0.533 0.213-0.853-0.053-0.32-0.16-0.587-0.213-0.853zM15.68 30.24l-1.76-1.12c-0.213-0.107-0.48-0.107-0.693 0l-1.76 1.12v-5.6c0.053 0 0.107 0 0.213 0s0.16 0 0.213 0 0.16 0 0.16 0 0.213 0.16 0.32 0.213c0.32 0.213 0.64 0.533 1.173 0.533s0.853-0.267 1.173-0.533c0.107-0.107 0.267-0.213 0.32-0.213 0 0 0.053 0 0.16 0 0.053 0 0.16 0 0.213 0s0.107 0 0.213 0l0.053 5.6zM16.907 26.773v-2.613c0.213-0.267 0.267-0.533 0.32-0.8 0.053-0.107 0.107-0.32 0.107-0.373 0.053-0.053 0.213-0.16 0.32-0.213 0.32-0.213 0.693-0.427 0.853-0.907 0.16-0.427 0-0.853-0.16-1.227-0.053-0.16-0.107-0.32-0.107-0.427s0.053-0.267 0.107-0.427 0.267-0.747 0.16-1.227c-0.16-0.48-0.533-0.693-0.853-0.907-0.107-0.053-0.267-0.16-0.32-0.213s-0.107-0.267-0.107-0.373c-0.107-0.373-0.213-0.8-0.587-1.067-0.32-0.213-0.64-0.267-0.907-0.267-0.107 0-0.213 0-0.32 0s-0.16 0-0.213 0-0.16 0-0.16 0-0.213-0.16-0.32-0.213c-0.32-0.213-0.64-0.533-1.173-0.533-0.48 0-0.853 0.267-1.173 0.533-0.107 0.107-0.267 0.213-0.32 0.213 0 0-0.053 0-0.16 0-0.053 0-0.16 0-0.213 0-0.107 0-0.213 0-0.32 0-0.267 0-0.587 0-0.907 0.267-0.373 0.267-0.48 0.693-0.587 1.067-0.053 0.16-0.107 0.32-0.107 0.373-0.053 0.053-0.213 0.16-0.32 0.213-0.32 0.213-0.693 0.427-0.853 0.907-0.16 0.427 0 0.853 0.16 1.227 0.053 0.16 0.107 0.32 0.107 0.427s-0.053 0.267-0.107 0.427-0.267 0.747-0.16 1.227c0.16 0.48 0.533 0.693 0.853 0.907 0.107 0.053 0.267 0.16 0.32 0.213s0.107 0.267 0.107 0.373c0.053 0.267 0.16 0.533 0.32 0.8v2.613h-8.907v-25.493h13.067v5.013c0 0.32 0.267 0.64 0.64 0.64h5.12v19.84h-3.2zM3.093 6.293c0-0.32 0.267-0.64 0.64-0.64h8.16c0.373 0 0.64 0.267 0.64 0.64 0 0.32-0.267 0.64-0.64 0.64h-8.16c-0.373-0.053-0.64-0.32-0.64-0.64zM18.293 9.44c0 0.32-0.267 0.64-0.64 0.64h-13.973c-0.373 0-0.64-0.267-0.64-0.64 0-0.32 0.267-0.64 0.64-0.64h13.973c0.373 0 0.64 0.267 0.64 0.64zM15.787 12.587c0 0.32-0.267 0.64-0.64 0.64h-11.413c-0.373 0-0.64-0.267-0.64-0.64 0-0.32 0.267-0.64 0.64-0.64h11.413c0.373 0 0.64 0.32 0.64 0.64zM18.293 12.587c0 0.32-0.267 0.64-0.64 0.64s-0.64-0.267-0.64-0.64c0-0.32 0.267-0.64 0.64-0.64s0.64 0.32 0.64 0.64z"></path>
    </symbol>

    <symbol id="icon-seemore" viewBox="0 0 32 32">
      <path d="M19.84 0c-6.72 0-12.24 5.44-12.24 12.16 0 3.040 1.12 5.76 2.96 7.92l-1.28 1.28-0.64-0.64c-0.4-0.4-0.96-0.4-1.36 0l-7.040 7.040c-0.4 0.4-0.4 0.96 0 1.36l2.64 2.64c0.4 0.4 0.96 0.4 1.36 0l7.040-7.040c0.4-0.4 0.4-0.96 0-1.36l-0.64-0.64 1.28-1.28c2.16 1.84 4.88 2.96 7.92 2.96 6.72 0 12.16-5.44 12.16-12.16s-5.44-12.24-12.16-12.24zM3.6 29.76l-1.36-1.36 5.68-5.68 1.36 1.36-5.68 5.68zM19.84 22.48c-5.68 0-10.32-4.64-10.32-10.32s4.64-10.32 10.32-10.32 10.32 4.64 10.32 10.32-4.64 10.32-10.32 10.32z"></path>
    </symbol>

    <symbol id="icon-eval" viewBox="0 0 32 32">
      <path d="M24.331 21.512c0 0.818-0.677 1.494-1.494 1.494h-13.702c-0.818 0-1.494-0.677-1.494-1.494v-11.193c0-0.818 0.677-1.494 1.494-1.494h13.702c0.818 0 1.494 0.677 1.494 1.494v11.193zM22.837 8.035h-13.702c-1.269 0-2.312 1.043-2.312 2.284v11.193c0 1.269 1.043 2.284 2.312 2.284h13.702c1.269 0 2.312-1.043 2.312-2.284v-11.193c0-1.269-1.043-2.284-2.312-2.284v0zM9.614 15.591c0.902 0.479 1.917 0.733 2.876 0.733 0.677 0 1.325-0.113 1.945-0.367 1.1-0.423 1.917-1.184 2.819-2.002 1.297-1.184 2.65-2.425 4.906-2.566 0.226-0.028 0.395-0.197 0.367-0.423s-0.197-0.395-0.423-0.367c-2.537 0.169-4.060 1.551-5.413 2.791-0.846 0.761-1.607 1.466-2.566 1.833-1.297 0.508-2.819 0.367-4.173-0.338-0.197-0.113-0.451-0.028-0.564 0.169-0.028 0.169 0.028 0.423 0.226 0.536v0zM22.16 12.715c-0.226 0-0.423 0.169-0.423 0.395v7.33h-2.256v-6.485c0-0.226-0.169-0.395-0.423-0.395-0.226 0-0.423 0.169-0.423 0.395v6.513h-2.256v-3.863c0-0.226-0.197-0.395-0.423-0.395s-0.423 0.169-0.423 0.395v3.863h-2.255v-2.707c0-0.226-0.197-0.395-0.423-0.395s-0.423 0.169-0.423 0.395v2.678h-2.255v-3.101c0-0.226-0.197-0.395-0.423-0.395s-0.423 0.169-0.423 0.395v3.524c0 0.226 0.197 0.395 0.423 0.395h12.349c0.226 0 0.423-0.169 0.423-0.395v-7.753c0.056-0.226-0.141-0.395-0.367-0.395v0z"></path>
    </symbol>

    <symbol id="icon-mise-en-oeuvre" viewBox="0 0 32 32">
      <path d="M22.64 22.104h-1.522l0.395-0.395c1.494-1.494 2.312-3.468 2.312-5.582s-0.818-4.088-2.312-5.582c-1.776-1.776-4.314-2.622-6.823-2.199-0.226 0.028-0.338 0.226-0.31 0.423 0.028 0.226 0.226 0.338 0.423 0.31 2.256-0.338 4.539 0.395 6.146 2.002 1.353 1.353 2.086 3.13 2.086 5.047s-0.761 3.693-2.086 5.047l-0.395 0.423v-1.522c0-0.226-0.169-0.395-0.395-0.395s-0.395 0.169-0.395 0.395v2.453c0 0.226 0.169 0.395 0.395 0.395h2.453c0.226 0 0.395-0.169 0.395-0.395s-0.169-0.423-0.367-0.423zM17.001 23.204c-2.255 0.338-4.539-0.395-6.146-2.002-2.763-2.763-2.763-7.302 0-10.093l0.395-0.395v1.522c0 0.226 0.169 0.395 0.395 0.395s0.395-0.169 0.395-0.395v-2.453c0-0.226-0.169-0.395-0.395-0.395h-2.453c-0.226 0-0.395 0.169-0.395 0.395s0.169 0.395 0.395 0.395h1.522l-0.395 0.395c-3.073 3.073-3.073 8.092 0 11.165 1.494 1.494 3.496 2.312 5.611 2.312 0.395 0 0.818-0.028 1.212-0.113 0.226-0.028 0.338-0.226 0.31-0.423-0.056-0.226-0.254-0.338-0.451-0.31zM19.764 17.255c0.338-0.028 0.592-0.31 0.592-0.677v-0.874c0-0.338-0.254-0.62-0.592-0.677l-0.874-0.085c-0.028-0.028-0.028-0.056-0.028-0.085l0.536-0.677c0.226-0.254 0.197-0.648-0.056-0.902l-0.62-0.62c-0.254-0.254-0.62-0.254-0.902-0.056l-0.677 0.536c-0.028-0.028-0.056-0.028-0.085-0.028l-0.085-0.874c-0.028-0.338-0.31-0.592-0.677-0.592h-0.874c-0.338 0-0.62 0.254-0.677 0.592l-0.056 0.902c-0.028 0.028-0.056 0.028-0.085 0.028l-0.677-0.536c-0.254-0.226-0.648-0.197-0.902 0.056l-0.62 0.648c-0.254 0.254-0.254 0.62-0.056 0.902l0.536 0.677c-0.028 0.028-0.028 0.056-0.028 0.085l-0.874 0.085c-0.338 0.028-0.592 0.31-0.592 0.677v0.874c0 0.338 0.254 0.62 0.592 0.677l0.874 0.085c0.028 0.028 0.028 0.056 0.028 0.085l-0.536 0.677c-0.226 0.254-0.197 0.648 0.056 0.902l0.62 0.62c0.254 0.254 0.62 0.254 0.902 0.056l0.677-0.536c0.056-0.028 0.056-0.028 0.085 0l0.085 0.874c0.028 0.338 0.31 0.592 0.677 0.592h0.874c0.338 0 0.62-0.254 0.677-0.592l0.085-0.874c0.028-0.028 0.056-0.028 0.085-0.028l0.677 0.536c0.254 0.226 0.648 0.197 0.902-0.056l0.62-0.62c0.254-0.254 0.254-0.62 0.056-0.902l-0.536-0.677c0.028-0.028 0.028-0.056 0.028-0.085l0.846-0.113zM18.213 17.734l0.648 0.761-0.592 0.62-0.789-0.648c-0.141-0.113-0.31-0.141-0.479-0.056-0.113 0.056-0.197 0.085-0.31 0.113-0.169 0.056-0.282 0.197-0.31 0.367l-0.085 0.987-0.874 0.028-0.085-1.015c-0.028-0.169-0.141-0.31-0.31-0.367-0.113-0.028-0.197-0.085-0.31-0.113-0.056-0.028-0.141-0.056-0.197-0.056-0.113 0-0.197 0.028-0.282 0.113l-0.761 0.648-0.62-0.592 0.648-0.789c0.113-0.141 0.141-0.31 0.056-0.479-0.056-0.113-0.085-0.197-0.113-0.31-0.056-0.169-0.197-0.282-0.367-0.31l-0.987-0.085-0.028-0.874 1.043-0.113c0.169-0.028 0.31-0.141 0.367-0.31 0.028-0.113 0.085-0.197 0.113-0.31 0.085-0.141 0.056-0.338-0.056-0.479l-0.648-0.761 0.592-0.62 0.789 0.648c0.141 0.113 0.31 0.141 0.479 0.056 0.113-0.056 0.197-0.085 0.31-0.113 0.169-0.056 0.282-0.197 0.31-0.367l0.085-0.987 0.874-0.028 0.113 1.043c0.028 0.169 0.141 0.31 0.31 0.367 0.113 0.028 0.197 0.085 0.31 0.113 0.141 0.085 0.338 0.056 0.479-0.056l0.761-0.648 0.62 0.592-0.648 0.818c-0.113 0.141-0.141 0.31-0.056 0.479 0.056 0.113 0.085 0.197 0.113 0.31 0.056 0.169 0.197 0.282 0.367 0.31l0.987 0.113 0.028 0.818-1.043 0.113c-0.169 0.028-0.31 0.141-0.367 0.31-0.028 0.113-0.085 0.197-0.113 0.31-0.085 0.141-0.085 0.31 0.028 0.451zM15.901 14.52c-0.902 0-1.635 0.733-1.635 1.635s0.733 1.635 1.635 1.635c0.902 0 1.635-0.733 1.635-1.635s-0.733-1.635-1.635-1.635zM15.901 17.085c-0.508 0-0.959-0.423-0.959-0.959s0.423-0.959 0.959-0.959c0.508 0 0.959 0.423 0.959 0.959s-0.451 0.959-0.959 0.959z"></path>
    </symbol>

    <symbol id="icon-validation" viewBox="0 0 39 32">
      <path d="M16.969 15.119c-0.176-0.176-0.176-0.47-0.029-0.646 0.176-0.176 0.47-0.176 0.646-0.029l1.262 1.204 2.584-3.611c0.147-0.206 0.411-0.264 0.616-0.117s0.264 0.411 0.117 0.617l-2.848 4.051c-0.088 0.117-0.206 0.176-0.323 0.176 0 0-0.029 0-0.029 0-0.117 0-0.235-0.059-0.323-0.117l-1.673-1.527zM13.681 14.327c0-3.229 2.613-5.872 5.872-5.872s5.872 2.613 5.872 5.872c0 3.229-2.613 5.842-5.872 5.872-3.259 0-5.872-2.642-5.872-5.872zM14.561 14.327c0 2.73 2.231 4.961 4.961 4.961s4.961-2.231 4.961-4.961c0-2.73-2.231-4.961-4.961-4.961s-4.961 2.231-4.961 4.961zM31.266 30.561c0 0.352-0.147 0.705-0.382 0.939 0 0 0 0 0 0s0 0 0 0c-0.235 0.235-0.587 0.411-0.969 0.411h-20.756c-0.382 0-0.705-0.147-0.939-0.411 0 0 0 0 0 0-0.235-0.235-0.382-0.587-0.411-0.939v-13.534c0-0.352 0.117-0.675 0.352-0.91 0-0.029 0.029-0.029 0.059-0.059l2.29-2.202v-8.543c0-0.235 0.206-0.44 0.44-0.44 0 0 0 0 0 0h13.534c0.059 0 0.117 0 0.176 0.029s0.117 0.059 0.147 0.088l3.611 3.611c0.029 0.029 0.088 0.088 0.088 0.147 0 0 0 0 0 0 0.029 0.059 0.029 0.117 0.029 0.176 0 0 0 0 0 0v4.961l2.29 2.202c0 0 0 0 0 0.029 0 0 0 0 0 0s0 0 0 0c0.235 0.264 0.382 0.587 0.382 0.939v13.505zM8.719 30.385l6.87-6.605-4.932-4.727c0 0 0 0 0 0l-1.938-1.85v13.182zM9.365 31.002h20.316l-6.87-6.576-1.086 1.057c-0.587 0.558-1.38 0.881-2.202 0.881s-1.585-0.323-2.172-0.881l-1.116-1.057-6.87 6.576zM30.356 30.385v-13.182l-1.938 1.85c0 0 0 0 0 0l-4.932 4.756 6.87 6.576zM28.536 15.119v2.554l1.35-1.292-1.35-1.262zM24.954 8.455h2.055l-2.055-2.055v2.055zM11.42 5.754v12.771l6.547 6.283c0.881 0.851 2.261 0.851 3.141 0l6.547-6.283v-4.462c0 0 0 0 0 0v-4.697h-3.171c-0.235 0-0.44-0.206-0.44-0.44 0 0 0 0 0 0v-3.171h-12.624zM10.51 15.119l-1.35 1.292 1.35 1.292v-2.584z"></path>
      <path d="M38.371 15.207h-0.587v-0.587c0-0.206-0.147-0.382-0.382-0.382s-0.382 0.147-0.382 0.382v0.587h-0.587c-0.206 0-0.382 0.147-0.382 0.382s0.147 0.382 0.382 0.382h0.587v0.587c0 0.206 0.147 0.382 0.382 0.382s0.382-0.147 0.382-0.382v-0.587h0.587c0.206 0 0.382-0.147 0.382-0.382s-0.206-0.382-0.382-0.382z"></path>
      <path d="M4.932 21.020h-0.587v-0.587c0-0.206-0.147-0.382-0.382-0.382s-0.382 0.147-0.382 0.382v0.587h-0.587c-0.205 0-0.382 0.147-0.382 0.382s0.147 0.382 0.382 0.382h0.587v0.587c0 0.206 0.147 0.382 0.382 0.382s0.382-0.147 0.382-0.382v-0.587h0.587c0.205 0 0.382-0.147 0.382-0.382 0.029-0.235-0.147-0.382-0.382-0.382z"></path>
      <path d="M7.428 1.527h-0.969v-0.969c0-0.294-0.235-0.558-0.558-0.558-0.264 0-0.558 0.235-0.558 0.558v0.969h-0.969c-0.264 0-0.558 0.235-0.558 0.558 0 0.264 0.235 0.558 0.558 0.558h0.969v0.969c0 0.264 0.235 0.558 0.558 0.558 0.264 0 0.558-0.235 0.558-0.558v-0.998h0.969c0.264 0 0.558-0.235 0.558-0.558-0.029-0.294-0.264-0.528-0.558-0.528z"></path>
      <path d="M1.409 8.631c0 0.389-0.315 0.705-0.705 0.705s-0.705-0.315-0.705-0.705c0-0.389 0.315-0.705 0.705-0.705s0.705 0.315 0.705 0.705z"></path>
      <path d="M36.257 26.216c0 0.389-0.315 0.705-0.705 0.705s-0.705-0.315-0.705-0.705c0-0.389 0.315-0.705 0.705-0.705s0.705 0.315 0.705 0.705z"></path>
      <path d="M32.793 2.789c0 0.47-0.381 0.851-0.851 0.851s-0.851-0.381-0.851-0.851c0-0.47 0.381-0.851 0.851-0.851s0.851 0.381 0.851 0.851z"></path>
    </symbol>

    <symbol id="icon-formation" viewBox="0 0 32 32">
      <path d="M31.119 6.124l-5.242-5.242c-0.563-0.563-1.324-0.881-2.118-0.881h-12.758c-1.656 0.006-2.999 1.35-2.999 3.006v7.351c-0.373 0-0.746-0.105-1.508-0.314-0.106-0.029-0.21-0.041-0.31-0.041-0.348 0-0.652 0.156-0.854 0.362-1.122 1.141-1.067 1.111-2.606 1.531-0.419 0.113-0.748 0.451-0.861 0.879-0.404 1.542-0.381 1.51-1.501 2.645-0.309 0.315-0.431 0.78-0.318 1.214 0.41 1.524 0.407 1.524 0 3.047-0.114 0.434 0.007 0.9 0.318 1.216 1.125 1.134 1.099 1.112 1.501 2.643 0.113 0.43 0.442 0.767 0.861 0.881 0.112 0.030 0.183 0.050 0.279 0.076v6.504c0 0.347 0.179 0.668 0.474 0.851 0.291 0.182 0.662 0.197 0.973 0.044l3.552-1.776 3.553 1.776c0.141 0.070 0.295 0.106 0.447 0.106h17c1.656 0 2.999-1.344 2.999-2.999v-20.753c0-0.793-0.319-1.562-0.881-2.124zM24.002 2.037c0.175 0.044 0.331 0.131 0.462 0.263l5.242 5.242c0.131 0.131 0.219 0.287 0.262 0.462h-5.968zM2.080 19.793c0.356-1.394 0.356-1.889 0.001-3.274 0.978-1.012 1.222-1.436 1.602-2.816 1.348-0.383 1.754-0.62 2.743-1.606 0.612 0.164 1.051 0.259 1.576 0.259 0.518 0 0.953-0.093 1.574-0.26 0.973 0.969 1.406 1.224 2.741 1.605 0.374 1.372 0.607 1.789 1.603 2.817-0.361 1.403-0.36 1.875 0 3.275-0.976 1.011-1.222 1.435-1.601 2.81-0.914 0.245-1.5 0.46-2.328 1.21-0.621-0.283-1.299-0.431-1.991-0.431s-1.369 0.148-1.991 0.431c-0.824-0.742-1.41-0.959-2.327-1.208-0.373-1.368-0.607-1.786-1.603-2.813zM8.448 28.106c-0.281-0.141-0.613-0.141-0.894 0l-2.553 1.276v-3.763c0.008 0.008 0.012 0.011 0.019 0.018 0.234 0.239 0.543 0.362 0.853 0.362 0.219 0 0.439-0.061 0.635-0.186 0.453-0.287 0.973-0.43 1.492-0.43s1.039 0.143 1.492 0.429c0.197 0.126 0.418 0.188 0.636 0.188 0.31 0 0.617-0.124 0.852-0.362 0.008-0.008 0.013-0.011 0.021-0.020v3.764zM30.001 29.001c0 0.55-0.45 1-1 1h-16v-5.507c0.096-0.025 0.166-0.044 0.277-0.074 0.419-0.114 0.748-0.451 0.861-0.88 0.404-1.543 0.381-1.51 1.502-2.645 0.309-0.315 0.431-0.781 0.317-1.215-0.408-1.521-0.409-1.521 0-3.047 0.114-0.434-0.008-0.9-0.317-1.216-1.125-1.134-1.099-1.112-1.502-2.643-0.113-0.429-0.442-0.767-0.859-0.881-1.514-0.411-1.493-0.389-2.607-1.533-0.184-0.186-0.424-0.283-0.671-0.322v-7.032c0-0.55 0.45-1.006 1-1.006h11.002v6.504c0 0.831 0.669 1.496 1.5 1.496h6.499v19.001z"></path>
    </symbol>

    <symbol id="icon-salaire" viewBox="0 0 46 32">
      <path d="M22.857 8c-3.787 0-6.857 3.581-6.857 8s3.070 8 6.857 8c3.786 0 6.857-3.581 6.857-8s-3.070-8-6.857-8zM22.857 21.714c-2.521 0-4.571-2.564-4.571-5.714s2.051-5.714 4.571-5.714 4.571 2.564 4.571 5.714-2.051 5.714-4.571 5.714zM44.369 1.604c-2.771-1.162-5.544-1.604-8.315-1.604-8.798-0.001-17.595 4.453-26.393 4.453-4.636 0-6.311-1.096-7.357-1.096-1.229 0-2.304 0.951-2.304 2.272v22.661c0 0.902 0.516 1.757 1.346 2.104 2.771 1.163 5.544 1.605 8.315 1.605 8.798 0 17.595-4.454 26.393-4.454 4.636 0 6.31 1.096 7.357 1.096 1.229 0 2.304-0.951 2.304-2.272v-22.661c0-0.903-0.516-1.757-1.346-2.105zM2.354 5.661c1.444 0.459 2.931 0.752 4.476 0.921-0.141 2.386-2.088 4.289-4.492 4.316zM2.286 28.291l0.009-3.039c2.399 0.005 4.349 1.879 4.527 4.245-1.604-0.217-3.116-0.604-4.536-1.206zM43.361 26.339c-1.44-0.457-2.921-0.751-4.462-0.919 0.206-2.321 2.121-4.153 4.478-4.18zM43.383 18.943c-3.571 0.024-6.471 2.809-6.756 6.329-5.052-0.102-9.799 1.13-14.329 2.276-5.362 1.357-9.039 2.229-13.172 2.134-0.088-3.716-3.106-6.715-6.825-6.724l0.029-9.762c3.618-0.024 6.551-2.88 6.77-6.466 5.038 0.101 9.787-1.131 14.314-2.276 5.342-1.353 9.035-2.23 13.159-2.135 0.013 3.781 3.072 6.853 6.839 6.862zM43.419 6.886c-2.446-0.005-4.431-1.953-4.541-4.384 1.609 0.216 3.127 0.604 4.551 1.208z"></path>
    </symbol>

    <symbol id="icon-magnifier-broken" viewBox="0 0 32 32">
      <path d="M31.182 27.228l-7.872-7.872c-0.209-0.209-0.545-0.209-0.754 0l-0.424 0.423-1.013-1.014c1.473-1.961 2.347-4.397 2.347-7.033 0-6.47-5.264-11.733-11.734-11.733s-11.733 5.264-11.733 11.733 5.263 11.733 11.733 11.733c2.636 0 5.071-0.874 7.032-2.346l1.014 1.013-0.423 0.423c-0.209 0.209-0.209 0.545 0 0.754l7.873 7.873c0.529 0.527 1.231 0.817 1.976 0.817 1.541 0 2.795-1.254 2.795-2.795 0-0.746-0.29-1.448-0.818-1.977zM1.067 11.733c0-5.881 4.785-10.667 10.667-10.667 1.166 0 2.288 0.189 3.339 0.536 0.305 0.101 0.604 0.215 0.897 0.342 3.78 1.642 6.43 5.411 6.43 9.789 0 5.882-4.785 10.667-10.667 10.667s-10.666-4.785-10.666-10.667zM19.592 20.439c0.296-0.267 0.578-0.55 0.846-0.846l0.941 0.941-0.846 0.846-0.941-0.941zM22.934 20.487l0.846 0.846-2.446 2.446-0.846-0.846 2.446-2.446zM29.205 30.934c-0.462 0-0.896-0.18-1.223-0.505l-5.895-5.895 2.446-2.446 5.894 5.894c0.326 0.327 0.506 0.762 0.506 1.223 0 0.953-0.775 1.728-1.728 1.728z"></path>
      <path d="M16.707 4.158c-0.483-0.319-0.998-0.592-1.54-0.815-1.060-0.435-2.219-0.677-3.434-0.677-5 0-9.066 4.067-9.066 9.067s4.067 9.067 9.066 9.067c5 0 9.067-4.067 9.067-9.067 0-3.163-1.63-5.952-4.093-7.575zM11.733 19.733c-4.411 0-8-3.589-8-8s3.589-8 8-8c1.417 0 2.748 0.372 3.904 1.021l0.11 0.33-4.349 2.175c-0.268 0.134-0.397 0.444-0.302 0.729l1.086 3.258-2.144 2.145c-0.235 0.235-0.235 0.616 0 0.851 0.118 0.118 0.272 0.177 0.426 0.177s0.308-0.059 0.426-0.177l2.407-2.407c0.161-0.161 0.217-0.4 0.145-0.616l-1.039-3.116 4.348-2.174c0.101-0.051 0.182-0.126 0.239-0.216 1.678 1.468 2.741 3.622 2.741 6.021 0.001 4.411-3.588 8-7.999 8z"></path>
    </symbol>

    <symbol id="icon-demande-infos" viewBox="0 0 34 32">
      <path d="M16.95-0.051c-9.348 0-16.95 6.010-16.95 13.457 0 2.26 0.719 4.52 2.106 6.523 1.027 1.438 3.339 3.287 3.595 3.493 0 0 0.051 0.103 0.051 0.103s-0.103 1.438-0.308 2.363c-0.616 2.825-1.541 4.726-1.541 4.726-0.308 0.565-0.103 0.976 0 1.181 0.205 0.308 0.565 0.462 0.925 0.462 0.154 0 0.36-0.051 0.565-0.103 0.257-0.103 2.774-1.079 5.907-3.133 1.181-0.77 2.928-2.209 2.979-2.26 0.051 0 0.154-0.051 0.257-0.103 0.257 0.051 1.49 0.154 2.414 0.154 9.348 0 16.95-6.061 16.95-13.457s-7.602-13.406-16.95-13.406zM16.95 25.117c-0.925 0-2.26-0.154-2.26-0.154-0.514-0.051-1.233 0.154-1.644 0.514-0.154 0.154-1.746 1.49-2.774 2.157-1.644 1.079-3.133 1.849-4.16 2.311 0.308-0.873 0.77-2.157 1.079-3.698 0.257-1.079 0.36-2.568 0.36-2.62 0.051-0.565-0.257-1.233-0.719-1.592 0 0-2.363-1.849-3.236-3.133-1.181-1.695-1.798-3.595-1.798-5.547 0-6.421 6.78-11.66 15.152-11.66s15.152 5.239 15.152 11.711c0 6.472-6.78 11.711-15.152 11.711zM14.998 7.088c0-0.822 0.616-1.695 1.798-1.695 0.462 0 0.873 0.154 1.181 0.462s0.462 0.77 0.462 1.233c0 0.976-0.719 1.644-1.695 1.644-1.027 0.051-1.746-0.719-1.746-1.644zM17.875 18.337h2.517v1.798h-6.78v-1.798h2.414v-6.523h-2.466v-1.798h4.366l-0.051 8.321z"></path>
  </symbol>

  <symbol id="icon-jpo" viewBox="0 0 33 32">
    <path d="M25.748 14.326h-18.511c-0.394 0-0.738 0.345-0.738 0.738v11.569c0 0.394 0.345 0.738 0.738 0.738h18.511c0.394 0 0.738-0.345 0.738-0.738v-11.569c0-0.394-0.345-0.738-0.738-0.738zM25.009 20.086h-4.825v-4.283h4.825v4.283zM13.883 20.086v-4.283h4.825v4.283h-4.825zM18.708 21.563v4.283h-4.825v-4.283h4.825zM12.406 15.803v4.283h-4.431v-4.283h4.431zM7.975 21.563h4.431v4.283h-4.431v-4.283zM20.185 25.895v-4.283h4.825v4.283h-4.825z"></path>
    <path d="M3.692 31.852h25.6c2.018 0 3.692-1.674 3.692-3.692v-21.415c0-2.018-1.674-3.692-3.692-3.692h-1.477v-2.314c0-0.394-0.345-0.738-0.738-0.738s-0.738 0.345-0.738 0.738v2.314h-19.298v-2.314c0-0.394-0.345-0.738-0.738-0.738s-0.738 0.345-0.738 0.738v2.314h-1.871c-2.018 0-3.692 1.625-3.692 3.692v21.415c0 2.018 1.674 3.692 3.692 3.692zM29.292 30.375h-25.6c-1.231 0-2.215-0.985-2.215-2.215v-17.132h30.031v17.132c0 1.182-0.985 2.215-2.215 2.215zM3.692 4.529h25.6c1.231 0 2.215 0.985 2.215 2.215v2.806h-30.031v-2.806c0-1.231 0.985-2.215 2.215-2.215z"></path>
  </symbol>

  <symbol id="icon-earth" viewBox="0 0 32 32">
    <path d="M16 32c-8.812 0-16-7.188-16-16s7.188-16 16-16 16 7.188 16 16-7.138 16-16 16zM16 1.083c-8.222 0-14.917 6.695-14.917 14.917s6.695 14.917 14.917 14.917 14.917-6.695 14.917-14.917-6.646-14.917-14.917-14.917zM17.822 27.422c-0.738 0-1.428-0.443-1.674-1.132l-0.591-1.477c-0.049-0.098-0.049-0.148-0.098-0.246l-1.034-4.037c0-0.049-0.049-0.098-0.049-0.148l-0.542-1.083c-0.148-0.295-0.492-0.492-0.837-0.394l-0.492 0.148c-0.542 0.148-1.132 0-1.575-0.345l-1.674-1.329c-0.443-0.345-0.689-0.886-0.689-1.428v-0.591c0-0.394 0.098-0.738 0.345-1.034l2.068-2.855c0.345-0.492 0.886-0.738 1.477-0.738h1.132c0.345 0 0.64 0.098 0.935 0.246l1.92 1.182c0.148 0.098 0.345 0.148 0.542 0.098l1.132-0.246c0.837-0.148 1.674 0.295 2.018 1.083l1.034 2.412c0.049 0.148 0.148 0.246 0.295 0.345l1.034 0.64c0.443 0.246 0.738 0.738 0.837 1.231s-0.049 1.034-0.394 1.477l-0.935 1.182c-0.098 0.148-0.148 0.295-0.148 0.492v1.674c0 0.492-0.197 0.935-0.542 1.28l-0.591 0.591c-0.049 0.049-0.098 0.098-0.098 0.148l-1.28 2.117c-0.246 0.394-0.591 0.64-0.985 0.788-0.148-0.098-0.345-0.049-0.542-0.049zM13.194 17.822c0.689 0 1.28 0.394 1.625 0.985l0.542 1.083c0.049 0.098 0.098 0.246 0.148 0.394l1.034 4.037c0 0.049 0 0.049 0.049 0.098l0.591 1.477c0.148 0.345 0.542 0.542 0.935 0.443 0.148-0.049 0.295-0.197 0.394-0.345l1.28-2.117c0.098-0.148 0.148-0.246 0.295-0.345l0.591-0.591c0.148-0.148 0.197-0.345 0.197-0.542v-1.674c0-0.394 0.148-0.837 0.394-1.132l0.935-1.182c0.148-0.148 0.197-0.394 0.148-0.591s-0.148-0.394-0.345-0.492l-1.034-0.64c-0.345-0.197-0.591-0.492-0.738-0.837l-1.034-2.412c-0.148-0.345-0.492-0.492-0.837-0.443l-1.182 0.246c-0.443 0.098-0.886 0-1.28-0.246l-1.92-1.182c-0.098-0.049-0.246-0.098-0.394-0.098h-1.132c-0.246 0-0.492 0.098-0.591 0.295l-2.068 2.855c-0.098 0.148-0.148 0.295-0.148 0.443v0.591c0 0.246 0.098 0.443 0.295 0.591l1.674 1.329c0.197 0.148 0.443 0.197 0.64 0.148l0.492-0.148c0.148 0 0.295 0 0.443 0zM24.025 26.683c-0.148 0-0.295-0.049-0.394-0.148l-1.083-1.083c-0.148-0.148-0.197-0.295-0.148-0.492l0.542-2.658c0-0.098 0.049-0.197 0.148-0.295l1.625-1.625c0.148-0.148 0.345-0.197 0.542-0.148s0.345 0.197 0.345 0.394l0.542 2.658c0.049 0.148 0 0.246-0.049 0.394l-1.625 2.658c-0.098 0.148-0.246 0.246-0.394 0.246 0 0.098-0.049 0.098-0.049 0.098zM23.532 24.911l0.394 0.394 1.132-1.92-0.295-1.477-0.788 0.738-0.443 2.265zM29.883 14.818c-0.837 0-1.575-0.591-1.822-1.428-0.148-0.492-0.295-0.935-0.443-1.28-0.098-0.197-0.345-0.345-0.591-0.394-0.295-0.049-0.542 0.098-0.738 0.295-1.083 1.28-2.117 1.92-3.102 1.772-1.182-0.148-1.772-1.28-1.822-1.329-2.462-4.923-6.892-4.529-6.942-4.529 0 0-0.049 0-0.049 0-0.295 0-0.64 0.049-0.985 0.197-1.182 0.492-2.462 0.098-3.249-0.886-0.738-0.985-0.738-2.265 0-3.249l0.049-0.098c0.394-0.492 0.935-0.788 1.575-0.837 2.018-0.148 3.495-1.132 4.431-2.855 0.098-0.197 0.295-0.295 0.492-0.295 7.778 0.345 14.129 6.252 15.114 13.982 0.049 0.295-0.148 0.542-0.443 0.591-0.443 0.098-0.886 0.148-1.329 0.197 0 0.148-0.049 0.148-0.148 0.148zM26.978 10.683c0.049 0 0.148 0 0.197 0 0.591 0.049 1.132 0.394 1.428 0.935 0.246 0.443 0.394 0.935 0.542 1.526 0.098 0.394 0.492 0.64 0.886 0.591 0.246-0.049 0.542-0.098 0.788-0.098-1.132-6.892-6.794-12.062-13.785-12.554-0.788 1.378-2.314 2.954-5.12 3.151-0.295 0.049-0.591 0.197-0.788 0.443l-0.049 0.049c-0.542 0.738-0.345 1.477 0 1.969s1.083 0.886 2.018 0.542c0.492-0.197 0.935-0.295 1.329-0.295 0.197 0 1.428-0.098 2.954 0.443 1.477 0.542 3.594 1.772 5.022 4.677 0 0 0.345 0.689 0.985 0.738 0.591 0.098 1.329-0.443 2.166-1.428 0.295-0.443 0.837-0.689 1.428-0.689zM1.92 14.917h-1.28c-0.148 0-0.295-0.049-0.394-0.197s-0.148-0.246-0.148-0.394c0.295-3.003 1.477-5.858 3.348-8.222 0.148-0.197 0.443-0.246 0.64-0.148l2.018 0.985c0.837 0.443 1.428 1.231 1.575 2.166l0.049 0.246c0.197 1.28-0.443 2.511-1.575 3.102l-1.034 0.542c-0.295 0.148-0.542 0.345-0.738 0.64-0.542 0.788-1.477 1.28-2.462 1.28zM1.231 13.883h0.689c0.64 0 1.231-0.295 1.575-0.837 0.295-0.443 0.689-0.788 1.132-0.985l1.034-0.542c0.738-0.345 1.132-1.182 0.985-1.969l-0.049-0.246c0 0 0 0 0 0-0.098-0.591-0.492-1.083-0.985-1.378l-1.625-0.788c-1.477 1.969-2.412 4.283-2.757 6.745zM6.548 28.751c-0.098 0-0.246-0.049-0.345-0.098-3.495-2.708-5.711-6.794-6.105-11.175 0-0.246 0.098-0.443 0.345-0.542l0.542-0.246c1.132-0.492 2.412-0.246 3.249 0.64l0.985 0.985c0.246 0.246 0.591 0.443 0.985 0.492 1.378 0.295 2.363 1.477 2.363 2.905v0.148c0 0.788-0.246 1.575-0.689 2.265-0.246 0.394-0.443 0.837-0.492 1.329l-0.295 2.855c0 0.197-0.148 0.345-0.345 0.443-0.049 0-0.148 0-0.197 0zM1.182 17.772c0.443 3.643 2.215 6.991 4.923 9.403l0.197-1.871c0.049-0.64 0.295-1.28 0.64-1.822 0.345-0.492 0.492-1.083 0.492-1.674v-0.148c0-0.886-0.64-1.674-1.526-1.871-0.591-0.098-1.083-0.394-1.526-0.788l-0.985-0.985c-0.542-0.542-1.378-0.689-2.068-0.394l-0.148 0.148z"></path>
  </symbol>

  <symbol id="icon-informations-pratiques" viewBox="0 0 32 32">
    <path d="M31.6 9.333l-7.2-2.133c0.133-0.467 0.2-0.933 0.2-1.267 0 0 0 0 0 0 0-3.2-2.667-5.867-5.867-5.867s-5.867 2.667-5.867 5.867c0 0 0 0 0 0 0 0.733 0.267 1.6 0.733 2.6l-2.8 0.8-10.133-3.133c-0.067 0-0.067 0-0.133 0-0.333 0-0.533 0.2-0.533 0.533v21.667c0 0.2 0.133 0.4 0.4 0.467l10.267 3.133c0.067 0 0.067 0 0.133 0s0.133 0 0.133 0l10.2-3.067 10.2 3.067c0.067 0 0.067 0 0.133 0 0.267 0 0.533-0.2 0.533-0.533v-21.667c0-0.2-0.133-0.4-0.4-0.467zM18.733 1c2.667 0 4.8 2.2 4.8 4.8 0 0.4-0.133 0.867-0.333 1.4 0 0 0 0 0 0-0.867 2.333-3.2 5.6-4.533 7.333-1.667-2.133-4.8-6.733-4.8-8.8 0.067-2.533 2.267-4.733 4.867-4.733zM1 7.4l9.267 2.8v20.6l-9.267-2.8v-20.6zM11.333 10.2l2.733-0.8c1.533 3 4.133 6.267 4.267 6.4 0.067 0.133 0.267 0.2 0.4 0.2s0.333-0.067 0.4-0.2c0.067-0.067 0.667-0.867 1.467-1.933v14.133l-9.267 2.8v-20.6zM31 30.8l-9.333-2.8v-15.667c0.867-1.333 1.8-2.867 2.4-4.267l6.933 2.067v20.667zM21.4 5.867c0-1.467-1.2-2.667-2.667-2.667s-2.667 1.2-2.667 2.667c0 1.467 1.2 2.667 2.667 2.667s2.667-1.2 2.667-2.667zM17.133 5.867c0-0.867 0.733-1.6 1.6-1.6s1.6 0.733 1.6 1.6c0 0.867-0.733 1.6-1.6 1.6s-1.6-0.733-1.6-1.6z"></path>
  </symbol>

  <symbol id="icon-slider-arrow-left" viewBox="0 0 16 32">
    <path fill="#fff" style="fill: var(--color1, #fff)" d="M15.764 31.535c-0.182 0-0.357-0.072-0.486-0.2l-15.078-15.078c-0.267-0.267-0.267-0.701 0-0.969l15.078-15.078c0.263-0.272 0.698-0.28 0.97-0.016s0.28 0.697 0.017 0.969c-0.006 0.006-0.012 0.011-0.017 0.016l-14.593 14.593 14.594 14.593c0.269 0.267 0.269 0.701 0.002 0.969-0.13 0.129-0.305 0.201-0.487 0.201z"></path>
  </symbol>

  <symbol id="icon-slider-arrow-right" viewBox="0 0 16 32">
    <path fill="#1a2c8e" style="fill: var(--color2, #1a2c8e)" d="M0.207 31.334c-0.267-0.268-0.267-0.702 0.002-0.969l14.593-14.593-14.592-14.593c-0.006-0.006-0.012-0.012-0.017-0.016-0.262-0.272-0.255-0.706 0.017-0.969s0.706-0.255 0.97 0.016l15.077 15.078c0.267 0.268 0.267 0.702 0 0.969l-15.078 15.078c-0.13 0.128-0.304 0.2-0.486 0.2s-0.357-0.072-0.486-0.201z"></path>
  </symbol>

  <symbol id="icon-check" viewBox="0 0 32 32">
    <path d="M10.231 15.044c-0.812-0.812-2.129-0.817-2.941-0.005s-0.812 2.119 0 2.932l4.84 4.82c0.39 0.39 0.919 0.569 1.471 0.569 0.012 0 0.024 0 0.036 0 0.564 0 1.1-0.208 1.485-0.621l13.401-14.321c0.784-0.84 0.739-2.156-0.101-2.94s-2.156-0.739-2.94 0.101l-11.932 12.785-3.317-3.32z"></path>
    <path d="M30.565 9.379l-2.434 2.537c0.432 1.283 0.669 2.655 0.669 4.084 0 7.069-5.731 12.8-12.8 12.8s-12.8-5.731-12.8-12.8c0-7.069 5.731-12.8 12.8-12.8 2.436 0 4.714 1.001 6.652 2.183l2.258-2.673c-2.547-1.711-5.611-2.71-8.91-2.71-8.836 0-16 7.164-16 16s7.164 16 16 16c8.836 0 16-7.163 16-16 0-2.362-0.516-4.603-1.435-6.621z"></path>
  </symbol>

  <symbol id="icon-quote" viewBox="0 0 34 32">
    <path fill="#bdcdd9" style="fill: var(--color1, #bdcdd9)" opacity="0.4" d="M30.526 16h-5.263v-4.211c0-2.303 1.842-4.211 4.211-4.211h0.526c0.855 0 1.579-0.658 1.579-1.579v-3.158c0-0.855-0.724-1.579-1.579-1.579h-0.526c-5.855 0-10.526 4.737-10.526 10.526v15.789c0 1.776 1.382 3.158 3.158 3.158h8.421c1.71 0 3.158-1.382 3.158-3.158v-8.421c0-1.71-1.447-3.158-3.158-3.158zM11.579 16h-5.263v-4.211c0-2.303 1.842-4.211 4.211-4.211h0.526c0.855 0 1.579-0.658 1.579-1.579v-3.158c0-0.855-0.724-1.579-1.579-1.579h-0.526c-5.855 0-10.526 4.737-10.526 10.526v15.789c0 1.776 1.382 3.158 3.158 3.158h8.421c1.711 0 3.158-1.382 3.158-3.158v-8.421c0-1.71-1.447-3.158-3.158-3.158z"></path>
  </symbol>

</defs>
</svg>
